<?xml version="1.0" encoding="utf-8"?>
<!-- Generator: Adobe Illustrator 24.3.0, SVG Export Plug-In . SVG Version: 6.00 Build 0)  -->
<svg version="1.1" id="Capa_1" xmlns="http://www.w3.org/2000/svg" xmlns:xlink="http://www.w3.org/1999/xlink" x="0px" y="0px"
	 viewBox="0 0 1600 707" style="enable-background:new 0 0 1600 707;" xml:space="preserve">
<path d="M579.11,291.59c-1.36-0.66-2.77-1.25-4.08-2.01c-11.53-6.67-23.1-13.28-34.52-20.12c-2.64-1.58-4.6-1.63-7.24-0.08
	c-12.21,7.16-24.57,14.05-36.77,21.22c-2.32,1.36-3.93,1.41-6.26,0c-11.97-7.23-24.11-14.17-36.09-21.4
	c-2.45-1.48-4.24-1.54-6.73-0.08c-12.06,7.08-24.32,13.82-36.33,20.98c-3.2,1.91-5.45,1.69-8.52-0.16
	c-11.69-7.04-23.63-13.68-35.32-20.73c-2.85-1.72-4.88-1.62-7.65,0.01c-12.63,7.42-25.44,14.54-38.07,21.97
	c-2.63,1.55-4.55,1.65-7.2,0.07c-12.59-7.49-25.36-14.67-37.93-22.2c-2.68-1.6-4.54-1.51-7.17,0.04
	c-11.9,7.02-23.94,13.81-35.96,20.63c-1.29,0.73-2.74,1.19-4.11,1.78c-0.27-0.49-0.55-0.98-0.82-1.46c1.3-0.96,2.53-2.05,3.92-2.85
	c12.11-6.99,24.32-13.83,36.32-21c1.58-0.95,3.1-3.48,3.14-5.31c0.31-14.16,0.37-28.33,0.17-42.49c-0.03-1.85-1.47-4.44-3.05-5.39
	c-11.95-7.25-24.15-14.1-36.16-21.27c-2.66-1.59-4.65-1.45-7.24,0.07c-12.07,7.07-24.21,14.01-36.42,20.83
	c-2.55,1.42-3.34,3.12-3.32,5.95c0.1,14.16,0.12,28.33-0.14,42.49c-0.05,2.62-0.92,5.57-2.35,7.76
	c-6.28,9.62-12.89,19.03-19.42,28.48c-0.83,1.2-1.9,2.23-2.86,3.34c-0.59-0.43-1.19-0.85-1.78-1.28
	c7.32-10.75,14.64-21.51,22.76-33.44c-15.39,0-29.49,0-43.58,0c-0.01-0.59-0.01-1.18-0.02-1.76c7.06-1.62,14.34-0.44,21.49-0.65
	c7.46-0.21,14.94-0.05,22.7-0.05c0.15-1.57,0.38-2.84,0.39-4.12c0.07-13.83,0.02-27.66,0.23-41.49c0.05-3.08-0.98-4.79-3.63-6.29
	c-12.16-6.9-24.17-14.08-36.34-20.97c-2.64-1.49-3.76-3.11-3.72-6.23c0.2-15,0.25-30,0.1-44.99c-0.03-3.16,1.18-4.7,3.79-6.16
	c12.35-6.9,24.56-14.08,36.92-20.96c2.84-1.58,4.05-3.35,3.92-6.65c-0.25-6.32-0.11-12.66-0.02-18.99c0.02-1.38,0.54-2.76,0.83-4.14
	c0.6,0.07,1.2,0.14,1.8,0.22c0,5.86,0.55,11.78-0.14,17.56c-0.88,7.33,1.96,11.32,8.41,14.64c11.09,5.7,21.62,12.48,32.51,18.59
	c2.84,1.59,3.91,3.38,3.84,6.68c-0.27,14.16-0.12,28.33-0.41,42.49c-0.07,3.59,0.91,5.77,4.12,7.57
	c11.9,6.68,23.7,13.56,35.44,20.52c2.42,1.44,4.24,1.62,6.77,0.13c11.91-7.01,23.9-13.88,35.99-20.58c2.76-1.53,3.58-3.34,3.5-6.34
	c-0.19-7.59-0.06-15.2-0.06-22.8c0.54-0.11,1.08-0.22,1.61-0.33c0.4,1.2,1.13,2.4,1.15,3.61c0.11,6.66,0.21,13.34-0.02,19.99
	c-0.1,2.93,1,4.47,3.47,5.87c12.45,7.07,24.73,14.43,37.22,21.44c2.92,1.64,3.76,3.51,3.71,6.71c-0.2,13.83-0.05,27.66-0.25,41.49
	c-0.05,3.08,0.96,4.82,3.6,6.31c12.17,6.9,24.27,13.9,36.3,21.04c2.47,1.47,4.3,1.48,6.76,0.04c12.21-7.15,24.58-14.03,36.79-21.2
	c2.61-1.54,4.51-1.65,7.18-0.03c11.66,7.1,23.54,13.83,35.21,20.92c2.75,1.67,4.77,1.8,7.61,0.12
	c12.18-7.21,24.48-14.21,36.85-21.09c1.41-0.78,3.93-1.03,5.25-0.3c12.91,7.27,25.68,14.79,38.46,22.28
	c0.88,0.52,1.55,1.4,2.32,2.12C579.71,290.65,579.41,291.12,579.11,291.59z M142.39,161.71c-0.07,0-0.14,0-0.21,0
	c0,7.16-0.21,14.32,0.15,21.46c0.09,1.85,1.53,4.34,3.1,5.29c12.09,7.32,24.3,14.43,36.64,21.32c1.6,0.89,4.53,0.93,6.12,0.05
	c12.38-6.81,24.55-14,36.88-20.92c2.46-1.38,3.53-2.9,3.51-5.83c-0.12-13.98-0.08-27.96,0.12-41.94c0.04-2.95-1.05-4.45-3.5-5.84
	c-12.29-6.98-24.43-14.21-36.76-21.12c-1.48-0.83-4.19-0.92-5.64-0.11c-12.52,6.9-24.95,13.98-37.23,21.29
	c-1.56,0.93-2.93,3.5-3.02,5.37C142.18,147.72,142.39,154.72,142.39,161.71z M361.02,240.37c0.06,0,0.13,0,0.19,0
	c0-6.83-0.16-13.66,0.07-20.47c0.1-3.02-0.75-4.87-3.46-6.4c-12.3-6.96-24.45-14.21-36.79-21.1c-1.48-0.82-4.19-0.86-5.66-0.05
	c-12.52,6.91-24.95,13.99-37.24,21.31c-1.58,0.94-3.09,3.49-3.12,5.33c-0.3,14.15-0.34,28.3-0.12,42.45
	c0.03,1.82,1.58,4.34,3.16,5.3c12.24,7.4,24.61,14.58,37.09,21.56c1.47,0.82,4.21,0.74,5.72-0.09
	c12.37-6.83,24.66-13.82,36.77-21.09c1.68-1.01,3.11-3.76,3.22-5.78C361.26,254.37,361.02,247.36,361.02,240.37z"/>
<path d="M184.87,115.91c4.7,0.2,38.59,20.34,39.78,24.82c-14.09-8.2-27.3-15.88-40.5-23.56
	C184.38,116.74,184.63,116.32,184.87,115.91z"/>
<path d="M356.94,219c-13.18-7.66-26.37-15.31-40.24-23.37C320.99,194.26,355.56,213.92,356.94,219z"/>
<path d="M358.11,265.29c-13.24,7.63-26.41,15.41-39.84,22.7c-0.42-0.74-0.83-1.48-1.25-2.22c13.28-7.61,26.56-15.21,39.84-22.82
	C357.28,263.73,357.69,264.51,358.11,265.29z"/>
<path d="M276.97,263.36c0-15.17,0-30.33,0-46.18C279.46,220.29,279.85,257.76,276.97,263.36z"/>
<g>
	<path d="M177.68,66.69c0.18,0.15,0.33,0.33,0.33,0.55c0,0.05,0,0.12-0.03,0.18c-0.18,0.48-1.18,1.2-1.5,1.45
		c-1.6,1.13-3.56,1.68-5.54,1.68c-5.42,0-9.18-3.89-9.18-9.08s3.76-9.08,9.18-9.08c1.45,0,2.91,0.3,4.21,0.9
		c0.95,0.45,1.91,1.1,2.61,1.91c0.15,0.18,0.23,0.35,0.23,0.53s-0.1,0.35-0.3,0.53L177,56.81c-0.18,0.12-0.35,0.2-0.5,0.2
		c-0.18,0-0.33-0.08-0.48-0.2c-1.33-1.38-3.16-2.21-5.09-2.21c-3.94,0-6.72,2.96-6.72,6.87c0,3.91,2.78,6.87,6.72,6.87
		c1.96,0,3.76-0.83,5.11-2.21c0.15-0.13,0.3-0.2,0.45-0.2c0.18,0,0.35,0.08,0.53,0.2L177.68,66.69z"/>
	<path d="M183.56,69.53c0,0.5-0.23,0.73-0.73,0.73h-0.93c-0.5,0-0.73-0.23-0.73-0.73v-16.1c0-0.5,0.23-0.73,0.73-0.73h0.93
		c0.5,0,0.73,0.23,0.73,0.73v6.94h9.65v-6.94c0-0.5,0.23-0.73,0.73-0.73h0.93c0.5,0,0.73,0.23,0.73,0.73v16.1
		c0,0.5-0.23,0.73-0.73,0.73h-0.93c-0.5,0-0.73-0.23-0.73-0.73v-7.07h-9.65V69.53z"/>
</g>
<g>
	<path d="M319.23,140.88c0,5.19-3.91,9.08-9.35,9.08c-5.42,0-9.35-3.89-9.35-9.08s3.94-9.08,9.35-9.08
		C315.32,131.8,319.23,135.69,319.23,140.88z M316.77,140.88c0-3.91-2.96-6.87-6.89-6.87s-6.89,2.96-6.89,6.87
		c0,3.91,2.96,6.87,6.89,6.87S316.77,144.79,316.77,140.88z"/>
	<path d="M324.91,148.92c0,0.5-0.23,0.73-0.73,0.73h-0.93c-0.5,0-0.73-0.23-0.73-0.73v-16.1c0-0.5,0.23-0.73,0.73-0.73h0.93
		c0.5,0,0.73,0.23,0.73,0.73v6.94h9.65v-6.94c0-0.5,0.23-0.73,0.73-0.73h0.93c0.5,0,0.73,0.23,0.73,0.73v16.1
		c0,0.5-0.23,0.73-0.73,0.73h-0.93c-0.5,0-0.73-0.23-0.73-0.73v-7.07h-9.65V148.92z"/>
</g>
<g>
	<path d="M224.12,309.68c0,5.19-3.91,9.08-9.35,9.08c-5.42,0-9.35-3.89-9.35-9.08s3.94-9.08,9.35-9.08
		C220.21,300.6,224.12,304.49,224.12,309.68z M221.67,309.68c0-3.91-2.96-6.87-6.89-6.87s-6.89,2.96-6.89,6.87
		c0,3.91,2.96,6.87,6.89,6.87S221.67,313.59,221.67,309.68z"/>
	<path d="M229.81,317.73c0,0.5-0.23,0.73-0.73,0.73h-0.93c-0.5,0-0.73-0.23-0.73-0.73v-16.09c0-0.5,0.23-0.73,0.73-0.73h0.93
		c0.5,0,0.73,0.23,0.73,0.73v6.94h9.65v-6.94c0-0.5,0.23-0.73,0.73-0.73h0.93c0.5,0,0.73,0.23,0.73,0.73v16.09
		c0,0.5-0.23,0.73-0.73,0.73h-0.93c-0.5,0-0.73-0.23-0.73-0.73v-7.07h-9.65V317.73z"/>
</g>
<g>
	<path d="M114.33,317.73c0,0.5-0.23,0.73-0.73,0.73h-0.93c-0.5,0-0.73-0.23-0.73-0.73v-16.09c0-0.5,0.23-0.73,0.73-0.73h0.93
		c0.5,0,0.73,0.23,0.73,0.73v6.94h9.65v-6.94c0-0.5,0.23-0.73,0.73-0.73h0.93c0.5,0,0.73,0.23,0.73,0.73v16.09
		c0,0.5-0.23,0.73-0.73,0.73h-0.93c-0.5,0-0.73-0.23-0.73-0.73v-7.07h-9.65V317.73z"/>
	<path d="M152.28,314.89c0.18,0.15,0.33,0.33,0.33,0.55c0,0.05,0,0.12-0.03,0.18c-0.18,0.48-1.18,1.2-1.5,1.45
		c-1.6,1.13-3.56,1.68-5.54,1.68c-5.42,0-9.18-3.89-9.18-9.08s3.76-9.08,9.18-9.08c1.45,0,2.91,0.3,4.21,0.9
		c0.95,0.45,1.91,1.1,2.61,1.91c0.15,0.17,0.23,0.35,0.23,0.53c0,0.17-0.1,0.35-0.3,0.53l-0.68,0.55c-0.18,0.12-0.35,0.2-0.5,0.2
		c-0.18,0-0.33-0.08-0.48-0.2c-1.33-1.38-3.16-2.21-5.09-2.21c-3.94,0-6.72,2.96-6.72,6.87c0,3.91,2.78,6.87,6.72,6.87
		c1.96,0,3.76-0.83,5.11-2.21c0.15-0.13,0.3-0.2,0.45-0.2c0.18,0,0.35,0.08,0.53,0.2L152.28,314.89z"/>
</g>
<g>
	<path d="M199.78,66.71c-0.06-0.08-0.1-0.16-0.1-0.23c0-0.08,0.04-0.17,0.12-0.24c0.62-0.58,1.58-0.82,2.41-0.82
		c1.51,0,2.63,0.9,2.63,2.12c0,0.92-0.43,1.5-1.28,1.85c0.86,0.26,1.64,1.07,1.64,2.23c0,1.46-1.26,2.47-2.99,2.47
		c-0.6,0-1.21-0.13-1.75-0.4c-0.36-0.17-0.74-0.41-0.98-0.73c-0.06-0.08-0.1-0.16-0.1-0.23c0-0.08,0.04-0.17,0.12-0.25l0.16-0.2
		c0.06-0.07,0.13-0.12,0.23-0.12c0.05,0,0.1,0.02,0.16,0.06c0.1,0.1,0.2,0.2,0.32,0.29c0.53,0.41,1.2,0.6,1.85,0.6
		c1.07,0,1.86-0.6,1.86-1.63c0-0.94-0.79-1.61-1.86-1.62h-0.41c-0.23,0-0.35-0.11-0.35-0.35V69.3c0-0.23,0.12-0.34,0.35-0.34h0.41
		c0.94-0.01,1.6-0.5,1.6-1.27c0-0.79-0.66-1.32-1.6-1.32c-0.68,0-1.34,0.24-1.87,0.67c-0.06,0.04-0.11,0.06-0.17,0.06
		c-0.1,0-0.18-0.07-0.24-0.17L199.78,66.71z"/>
</g>
<g>
	<path d="M129.71,317.89c-0.06-0.08-0.1-0.16-0.1-0.23c0-0.08,0.04-0.17,0.12-0.24c0.62-0.58,1.58-0.82,2.41-0.82
		c1.51,0,2.63,0.9,2.63,2.12c0,0.92-0.43,1.5-1.28,1.85c0.86,0.26,1.64,1.07,1.64,2.23c0,1.46-1.26,2.47-2.99,2.47
		c-0.6,0-1.21-0.13-1.75-0.4c-0.36-0.17-0.74-0.41-0.98-0.73c-0.06-0.08-0.1-0.16-0.1-0.23c0-0.08,0.04-0.17,0.12-0.25l0.16-0.2
		c0.06-0.07,0.13-0.12,0.23-0.12c0.05,0,0.1,0.02,0.16,0.06c0.1,0.1,0.2,0.2,0.32,0.29c0.53,0.41,1.2,0.6,1.85,0.6
		c1.07,0,1.86-0.6,1.86-1.63c0-0.94-0.79-1.61-1.86-1.62h-0.41c-0.23,0-0.35-0.11-0.35-0.35v-0.22c0-0.23,0.12-0.34,0.35-0.34h0.41
		c0.94-0.01,1.6-0.5,1.6-1.27c0-0.79-0.66-1.32-1.6-1.32c-0.68,0-1.34,0.24-1.87,0.67c-0.06,0.04-0.11,0.06-0.17,0.06
		c-0.1,0-0.18-0.07-0.24-0.17L129.71,317.89z"/>
</g>
<g>
	<path d="M88.86,268.07c0,0.5-0.23,0.73-0.73,0.73h-0.93c-0.5,0-0.73-0.23-0.73-0.73v-16.1c0-0.5,0.23-0.73,0.73-0.73h0.93
		c0.5,0,0.73,0.23,0.73,0.73v6.95h9.65v-6.95c0-0.5,0.23-0.73,0.73-0.73h0.93c0.5,0,0.73,0.23,0.73,0.73v16.1
		c0,0.5-0.23,0.73-0.73,0.73h-0.93c-0.5,0-0.73-0.23-0.73-0.73V261h-9.65V268.07z"/>
	<path d="M126.81,265.23c0.18,0.15,0.33,0.33,0.33,0.55c0,0.05,0,0.12-0.03,0.17c-0.18,0.48-1.18,1.2-1.5,1.45
		c-1.6,1.13-3.56,1.68-5.54,1.68c-5.42,0-9.18-3.89-9.18-9.08s3.76-9.08,9.18-9.08c1.45,0,2.91,0.3,4.21,0.9
		c0.95,0.45,1.91,1.1,2.61,1.91c0.15,0.18,0.23,0.35,0.23,0.53c0,0.18-0.1,0.35-0.3,0.53l-0.68,0.55c-0.18,0.12-0.35,0.2-0.5,0.2
		c-0.18,0-0.33-0.08-0.48-0.2c-1.33-1.38-3.16-2.21-5.09-2.21c-3.94,0-6.72,2.96-6.72,6.87s2.78,6.87,6.72,6.87
		c1.96,0,3.76-0.83,5.11-2.21c0.15-0.12,0.3-0.2,0.45-0.2c0.18,0,0.35,0.08,0.53,0.2L126.81,265.23z"/>
</g>
<g>
	<path d="M104.24,268.23c-0.06-0.08-0.1-0.16-0.1-0.23c0-0.08,0.04-0.17,0.12-0.24c0.62-0.58,1.58-0.82,2.41-0.82
		c1.51,0,2.63,0.9,2.63,2.12c0,0.92-0.43,1.5-1.28,1.85c0.86,0.26,1.64,1.07,1.64,2.23c0,1.46-1.26,2.47-2.99,2.47
		c-0.6,0-1.21-0.13-1.75-0.4c-0.36-0.17-0.74-0.41-0.98-0.73c-0.06-0.08-0.1-0.16-0.1-0.23c0-0.08,0.04-0.17,0.12-0.25l0.16-0.2
		c0.06-0.07,0.13-0.12,0.23-0.12c0.05,0,0.1,0.02,0.16,0.06c0.1,0.1,0.2,0.2,0.32,0.29c0.53,0.41,1.2,0.6,1.85,0.6
		c1.07,0,1.86-0.6,1.86-1.63c0-0.94-0.79-1.61-1.86-1.62h-0.41c-0.23,0-0.35-0.11-0.35-0.35v-0.22c0-0.23,0.12-0.34,0.35-0.34h0.41
		c0.94-0.01,1.6-0.5,1.6-1.27c0-0.79-0.66-1.32-1.6-1.32c-0.68,0-1.34,0.24-1.87,0.67c-0.06,0.04-0.11,0.06-0.17,0.06
		c-0.1,0-0.18-0.07-0.24-0.17L104.24,268.23z"/>
</g>
<g>
	<path d="M602.97,295.25c0.18,0.15,0.33,0.33,0.33,0.55c0,0.05,0,0.12-0.03,0.18c-0.17,0.48-1.18,1.2-1.5,1.45
		c-1.6,1.13-3.56,1.68-5.54,1.68c-5.42,0-9.18-3.89-9.18-9.08s3.76-9.08,9.18-9.08c1.45,0,2.91,0.3,4.21,0.9
		c0.95,0.45,1.91,1.1,2.61,1.91c0.15,0.17,0.23,0.35,0.23,0.53c0,0.17-0.1,0.35-0.3,0.53l-0.68,0.55c-0.17,0.12-0.35,0.2-0.5,0.2
		c-0.18,0-0.33-0.08-0.48-0.2c-1.33-1.38-3.16-2.21-5.09-2.21c-3.94,0-6.72,2.96-6.72,6.87c0,3.91,2.78,6.87,6.72,6.87
		c1.96,0,3.76-0.83,5.11-2.21c0.15-0.13,0.3-0.2,0.45-0.2c0.18,0,0.35,0.08,0.53,0.2L602.97,295.25z"/>
	<path d="M608.86,298.09c0,0.5-0.23,0.73-0.73,0.73h-0.93c-0.5,0-0.73-0.23-0.73-0.73v-16.09c0-0.5,0.23-0.73,0.73-0.73h0.93
		c0.5,0,0.73,0.23,0.73,0.73v6.94h9.65v-6.94c0-0.5,0.23-0.73,0.73-0.73h0.93c0.5,0,0.73,0.23,0.73,0.73v16.09
		c0,0.5-0.23,0.73-0.73,0.73h-0.93c-0.5,0-0.73-0.23-0.73-0.73v-7.07h-9.65V298.09z"/>
</g>
<g>
	<path d="M625.08,295.27c-0.06-0.08-0.1-0.16-0.1-0.23c0-0.08,0.04-0.17,0.12-0.24c0.62-0.58,1.58-0.82,2.41-0.82
		c1.51,0,2.63,0.9,2.63,2.12c0,0.92-0.43,1.5-1.28,1.85c0.86,0.26,1.64,1.07,1.64,2.23c0,1.46-1.26,2.47-2.99,2.47
		c-0.6,0-1.21-0.13-1.75-0.4c-0.36-0.17-0.74-0.41-0.98-0.73c-0.06-0.08-0.1-0.16-0.1-0.23c0-0.08,0.04-0.17,0.12-0.25l0.16-0.2
		c0.06-0.07,0.13-0.12,0.23-0.12c0.05,0,0.1,0.02,0.16,0.06c0.1,0.1,0.2,0.2,0.32,0.29c0.53,0.41,1.2,0.6,1.85,0.6
		c1.07,0,1.86-0.6,1.86-1.63c0-0.94-0.79-1.61-1.86-1.62h-0.41c-0.23,0-0.35-0.11-0.35-0.35v-0.22c0-0.23,0.12-0.34,0.35-0.34h0.41
		c0.94-0.01,1.6-0.5,1.6-1.27c0-0.79-0.66-1.32-1.6-1.32c-0.68,0-1.34,0.24-1.87,0.67c-0.06,0.04-0.11,0.06-0.17,0.06
		c-0.1,0-0.18-0.07-0.24-0.17L625.08,295.27z"/>
</g>
</svg>
