<svg data-name="Capa 1" xmlns="http://www.w3.org/2000/svg" viewBox="0 0 439.6 424.4"><path d="M166 308ZM315 346ZM315 346ZM315 336l1 2-3 2-3 1h15l-9-2 1-3-14-4-1 2ZM172 306h-24v-1l4-4c-8 4-15 0-23-1l3-3c-8 3-15-1-22-3l4-3c-9 3-16-3-24-7l8-1-9-1a42 42 0 0 1-8-3l-8-5 8-1c-8-1-16-3-22-11h4l-16-9v-1l8-2c-3-1-7-1-10-3l-11-7 6-1c-13-4-25-9-34-20 12 0 32 6 40 13v-5l14 7 2 2v-5l14 7v-3l14 7 1-4 13 8 1 3 1-3 13 10v-2c5 3 11 4 13 10v-3c8 5 9 6 10 11l1-4 8 6 6 8v-4l16 13-7-8-8-7a4 4 0 0 0-1 0l-1 1-7-6c-2-1-4-5-7-4l-20-13a86 86 0 0 1-13-8l-3-2-2 2c-3-6-9-6-13-9l-2 3-13-7-1 3-13-6-3 4h1l-14-9-2 4c-5-4-10-7-16-8l-26-5-2-1c10 11 20 22 36 24l-5 2 17 10-5 2 16 8-2 2c5 4 9 9 17 9l-4 2 18 9-1 2c7 2 13 8 21 8l-1 2 21 5-1 2 19 2-2 2 14 1 7 1a11 11 0 0 1 2 0l5-2ZM283 336h-1 1ZM137 140l-1-2-2 4-8-13-3 5a25 25 0 0 0-8-14l-3 6-4-7h-1l6 12 2-10c6 5 7 12 8 19l3-9h1l7 17 3-8v1-1ZM340 145v1l1-1Z"/><path d="M427 223c-10 2-22 1-30 10l-1-4-10 5a33 33 0 0 0-4 3l14-6-1 5c6-5 11-8 19-9l20-3a54 54 0 0 1-34 20v1a19 19 0 0 1 3 0 22 22 0 0 1 2 1c-6 6-10 7-21 10a26 26 0 0 1 4 1 28 28 0 0 1 5 3l-16 8 3 2c-7 7-8 8-22 10l8 1c-8 5-14 10-23 9l7 2-13 6c-4 1-8 2-11-1l4 4c-7 1-13 5-20 2l1 4c-7 0-14 3-22-2l5 6-23-1 5 2-43 4 19-9c7-3 13-5 20-3l-5-2c5-4 11-2 16-3l-7-1c5-2 9-5 15-4a80 80 0 0 0 14 0l-15-2c10-7 20-6 31-5l-4-1a40 40 0 0 0-5-1h-6c10-7 22-6 33-6v-1l-18-1a47 47 0 0 1 34-9v-1h-15c9-7 20-8 31-9h-13c4-3 9-5 20-6l-6-1a43 43 0 0 1 19-7h-3v-1l30-12-32 12 2-4-16 10-1-1 4-4a49 49 0 0 1-19 12l4-8-1-1c-3 10-11 14-20 17l5-13h-1c-2 5-4 11-8 15s-9 6-15 9l3-11c-2 4-3 9-6 12s-8 4-12 7l3-9-1-1c-2 9-9 14-17 16l3-8c-2 3-4 7-7 9l-11 6 3-5v-1l-2 3a20 20 0 0 1-14 8c-4 0-8 3-12 5l-7 3v-1l9-5c4-2 9-5 12-9l-11 7-12 7-11 8-1-1 33-26h-1l-31 22c7-10 13-20 25-24l-1-1-9 4c4-9 11-14 19-17l-10 3c4-10 13-13 20-18l-11 5c4-11 13-17 24-19v-1l-14 4c3-10 9-16 20-17l8-2-1-1-19 4 7-10c2-5 6-6 11-7a17 17 0 0 0 2 0l13-2v-1l-21 3a74 74 0 0 0 5-8c2-5 6-7 12-7l13-4-19 3c3-9 11-10 18-13l-10 2c2-3 4-7 7-9l11-5a13 13 0 0 0-5 0l-6 2c5-8 5-8 14-15l-5 2-1-1 13-15-5 1 1-8c-1 8-4 16-10 23l-1-9-1 11-6 11-3-15 1 15c0 5-5 8-7 12h-1l-2-16v11c3 9-4 13-7 19l-5-19a8 8 0 0 0 0 4l2 14v5l-6 9-5-15 2 11v7l-7 12-4-18v8c4 11 0 19-7 28v-7a54 54 0 0 0-1-7c1 11 0 20-7 28l-2-13h-1c2 12-1 22-9 31v-7l-1-7c0 9 0 18-6 26l-5 7-8 12v-1l13-33 3 2c-3-5-1-16 1-21l3 4c-2-8 2-15 4-23l4 4c-4-7 1-13 1-20l6 3c-4-8 1-16 1-24l6 4c-2-7 1-14 3-21l5 4c-1-8 3-14 7-22l3 7c-2-9 3-15 7-22l3 7h1c-1-6 2-10 5-15a14 14 0 0 0 1-4l-8 13-2-5-9 18-2-2c-4 7-8 14-7 23l-4-3c-4 6-5 12-4 19l-6-3-3 22-4-3-3 19-2-2-6 20-1-1c-4 9-3 19-7 27l-10 25a42 42 0 0 1 1-5c1-8 2-15 5-21a26 26 0 0 0 3-10 81 81 0 0 1 8-27l3-15-3 1-5 4h1l6-3c-3 12-8 22-13 33l4-3c-1 8-3 15-6 22l-4 12-2 15a38 38 0 0 1-1 4c-4-15 2-28 8-41l-8 15v-14a26 26 0 0 1 5-16l7-12-1-1-9 17v-16c-1-6 2-10 6-13a63 63 0 0 0 8-9l2-4c-3 7-10 10-16 15a90 90 0 0 0 0-10c0-6 2-9 7-11a19 19 0 0 0 11-10c-4 5-11 8-17 11l1-20a6 6 0 0 1 3-5l12-9 7-7h-1c-5 7-14 9-21 16l1-11c0-14 0-14 12-23l6-4 4-4-21 14 1-13c0-7 3-11 7-15a88 88 0 0 0 7-7 13 13 0 0 0 1-2l-13 13-1-1v-13c0-6 3-10 7-14l8-9h-1l-13 12c1-8-1-16 5-22l-4 4V82c0-3 0-5 2-7l-3 1 3-14-1 1 1-14-1-1-1 2-1-1 1 13h-1l-3-4c3 5 5 10 2 17l-6-8h-1c9 7 8 17 7 27l-8-12a134 134 0 0 0 6 13c3 4 1 9 1 14l-11-13c4 6 8 12 10 19s0 13 0 20l-1 1-15-22c2 7 5 12 10 18 2 2 5 6 5 9l-1 19-21-30a132 132 0 0 0 15 25c2 3 5 7 5 10l-2 23-21-32a56 56 0 0 0 12 21c9 10 10 21 8 33l-17-22-1 1 11 15c6 7 9 19 6 27l-16-18c2 5 5 9 8 12 6 6 9 12 8 21v12h-1l-7-12c2 5 5 11 6 17l1 18h-1l-6-17 6 23c2 8 1 16 1 24-2-6-4-12-4-18a115 115 0 0 0-7-31l-2-14 1-1 5 8c-3-12-10-22-12-35l9 5c-9-9-12-19-14-31l9 2c-7-10-8-21-9-33l8 7h1c-5-5-7-11-8-17l-2-19c7 0 8 6 12 9a73 73 0 0 0-4-8l-4-7c-3-8-2-17-1-26l8 6c-7-10-4-21-3-32l5 7h1c-5-8-2-16 0-25l3 6V46l6 5 1-10 1-8-3 14a25 25 0 0 0-3-2l-2 1-2 12-3-1-3 19-3-1c-2 9-3 18 1 27l-5-2c-2 11-3 22 2 32l-5 1c0 11 0 21 5 31l-5-4c1 12 0 24 8 34l-7-2c1 10 3 20 9 28l-3-1c-1 5 0 9 2 14l5 13-2-2c0 6 0 11 2 16l4 18 4 23 3 15h-2l-7-16-7-17-5-12-3-15-3-2c0-7-5-18-6-18l-5-17-3 2-4-22-4 3-2-10-3-10-3 3-8-22-2 3-9-18-2 4-7-11a24 24 0 0 0 1 3l5 12 1 5 2-9c5 7 8 14 9 21l1-6c4 8 8 14 7 23l4-5h1l4 19 4-2c1 8 5 15 3 23l4-3c1 7 6 13 3 21l4-5 5 22 2-3h1l3 18c5 12 10 22 13 34l-10-16c-3-5-6-9-7-15l-1-13h-1l1 13c-8-8-10-19-11-30l-1 12c-7-8-7-18-8-27v13c-6-8-10-15-8-25v-9l-2 18a60 60 0 0 0-4-6c-3-4-4-9-3-15a93 93 0 0 0 1-9h-1l-3 14c-4-5-8-10-6-17l1-13-3 18a41 41 0 0 0-4-5c-3-4-4-8-3-13l-1-15h-1v19c-8-6-8-15-7-24h-1l-1 11c-7-6-7-14-8-22v10c-6-6-8-14-10-22l1 8-3-3 1 3-2-1 12 15-1 1-7-4c6 5 13 9 15 17l-10-4c7 5 15 7 17 16l-7-1 9 3c3 1 4 5 6 8v1l-16-3a115 115 0 0 0 14 4l5 2 8 12-17-2 11 3 8 2 9 14-17-3 11 4 8 4c3 3 4 6 6 10l-13-3-1 1c12 1 20 8 24 19l-7-4c6 5 12 9 15 16l-7-2c8 3 12 9 16 16l-4-2-4-1c10 5 15 14 22 23l-31-24-1 1 31 26a2 2 0 0 1-2 0l-33-22 12 10 12 7-18-8a37 37 0 0 0-6-2c-5-1-9-5-13-9l1 2 1 2c-7-2-13-5-15-12h-1l3 5c-9-2-16-7-19-16v1l3 9c-8-4-17-6-17-18l-1 1 2 9c-5-3-10-4-14-8s-6-9-8-13l3 11c-7-4-15-6-19-15l2 5-1 1-17-12 2 4a45 45 0 0 1-18-10l3 3-33-12 31 13-2 1 17 6v1h-5c7 0 13 3 19 7l-13-1c11 2 22 3 31 10H86c12 1 24 3 35 11h-20c12 1 24 0 35 7l-16 1 17 2 16 4v1l-17 1v1h15c6 0 10 1 15 4l-8 1c6 1 13 0 19 4l-6 1c15-1 27 8 40 14l-44-7 5 2 35 6c4 0 8 1 11 5a16 16 0 0 1-2 0c-14 0-28 0-42 3a17 17 0 0 0-3 2l-15 2c-1 0-3 0-1 2l3-2h15l1-1-1-2 35-3v2l-15 3c-3 2-7 3-11 3l-12 1v1l6 1h1l-17 4h2v1l-15 2 4 1v1l-15 1 3 1-34 12 33-9v1l-1 1 13-6 1 1-2 2 12-6 1 1-5 5c5-5 11-8 18-9l-5 7h1c4-7 11-11 20-12l-6 7c6-6 13-12 22-13l-2 3-2 2c7-6 9-8 14-7-4 8-6 18-15 23l-3-8a35 35 0 0 1-18 13l-1-5-9 6a12 12 0 0 1-2 1l10-3c1 2 3 2 5 1a27 27 0 0 0 15-10l2 6c10-3 13-13 17-21v24c3 22 4 44 2 66v6l9 1-4-97c3 8 6 17 16 20l2-6c5 6 11 9 18 10l1-2 13 5 1-3 10 5 1-3c7 4 7 4 10 4-4-2-9-3-11-8l-1 6-10-6-1 4c-5-1-9-3-12-8l-2 5a33 33 0 0 1-17-12l-3 8c-9-5-10-15-14-23 6 0 10 4 14 8l-4-6c9 2 16 7 21 15l-6-9c8 1 14 4 19 11l1-1-5-5c7 0 13 4 18 9l-4-5v-1l12 6-2-3 19 5 12 3 9 3v-1l-14-5a14 14 0 0 1-2-1h1l-13-2v-1l5-2c-6 1-12 1-17-2l4-1c-5 0-10 1-15-2h3l-17-4v-1h6l-22-3v-2h1l-14-2c11-3 21 0 32 1l-1 2h19v2l-7 1 1 1 22 1-2-1c-4-2-9-1-14-2l1-1a33 33 0 0 1-4-2c-4-2-9 0-14-2-7-2-15-3-23-3h-15a15 15 0 0 1-3 0 13 13 0 0 1 5-3 134 134 0 0 1 35-4l8-1 6-2h14l-2-2 19-1-1-3c7 2 13-2 20-3l-1-3c9 2 14-5 21-7l-1-1 18-9-4-2c7-1 12-5 17-11l-2-1 16-8-5-3 17-10-5-3c17-1 26-13 37-23a123 123 0 0 0-13 2ZM155 330Zm72 83 1 10h-6v-11c1-21 0-41-2-62v-24l1-3h2l1 11 3 79Z"/><path d="m214 113 1 1-1-1c0-1 0 0 0 0ZM249 121l-2 3 3-2ZM303 332h-1 1ZM252 139l-1 1Z"/><path d="M247 40h1l-2 14 4-3h1l-4 17 7-4 1 11-2 10 4-5c3 11 0 20-5 29 3-2 3-6 7-6 1 13-3 24-7 36 2-5 5-7 10-9-2 13-1 25-12 34l8-3-4 17-4 8 7-2 1 1-7 21 3-3 6-22-6 3 7-26-4 2c5-10 6-21 5-32l-7 4c5-10 6-20 5-31l-3 1c5-8 3-16 1-24l-3 1a29 29 0 0 0-1-17l-4 3 1-17-3 2V38l-3 1-3 5ZM269 295v-1l-1 1ZM133 360a10 10 0 0 0-2-1v1ZM113 345c-11 8-24 12-32 24l10-3 30-5 10-2 1-3-13 4 1-2-35 9c6-8 14-12 24-16l-2-2 9-3-1-3-1 3ZM141 358l1 2 1-4-10 4 8-2ZM115 343ZM310 358l-1-1h-2l3 1ZM346 352ZM346 352l-1 1 13 4c-18 3-26 2-40-3l4 3-1 1-12-4v3h2c5 0 10 3 15 1 9 4 19 3 29 2h7l1-1-5-3-12-4ZM298 353l1 4 1-1 7 1a29 29 0 0 1-3-1 60 60 0 0 1-6-3ZM91 133c1 0 0 0 0 0l-3 1 8 2c-9-12-12-26-14-41 9 11 18 20 23 32-4-14-15-23-24-35l1 12c1 11 4 20 9 29ZM367 93c0 15-2 30-13 41l9-3-4-1c10-12 8-26 9-41-9 11-20 20-24 33 5-9 19-26 23-29ZM310 147c-1-7 5-11 8-18l4 9c0-8 3-14 8-19l4 9 6-12-1-1-5 10-4-7a22 22 0 0 0-8 15l-4-6-9 14-2-4-1 2ZM125 212l-3 3c4 5 7 11 14 13l-2 3 12 11-1 1 2 2c2 5 6 8 10 11l1 2c1-3 4 0 5-1l-16-12 2-2a15 15 0 0 1 3 0c-7-2-12-7-16-13l2-3c-7-1-10-7-14-12l3-3c-5-3-9-8-13-13a4 4 0 0 0 0 2 21 21 0 0 0 11 11ZM276 273l7-7 8-7-1-1c-5 6-12 9-19 13l7-2c-5 8-11 12-19 13a32 32 0 0 0 6 1 4 4 0 0 1 2 0l-1-1h1l9-9ZM154 331h-7a29 29 0 0 0-8 2l23-2-7-1-1 1ZM138 333h1-1ZM124 337l1 3-10 3h15l-5-4v-2l14-2-1-2a15 15 0 0 0-2 1c-3 2-8 2-12 3ZM115 343ZM100 170l8-2c-9-2-11-10-14-17h6l-6-6-5-9c1 5 3 10 7 13l-3 2c3 5 3 13 9 17l-4 1 2 3v-2ZM100 172ZM232 20v2l1 2c1-8 4-15 10-20a24 24 0 0 0 3-3v3l-4 21 2-2h1a13 13 0 0 1-1-4l2-12 2-7h-1l-1 1a26 26 0 0 0-11 11c-2 3-2 6-5 9s-3 7-4 10l-2 1 4 8c-2-7-1-13 4-20ZM332 195l7 1-1 2-13 13h2l2 2c-5 5-9 12-17 12l5 4-9 7-10 5 7 1c-5 7-13 10-20 13 2 2 5-1 7 2l1-3a27 27 0 0 0 13-13l-2-1 8-5 7-6-4-3c8-2 12-8 16-14l-4-1a26 26 0 0 1 2-2c4-3 8-6 9-11l2-2-2-1 11-14-3-2a12 12 0 0 0 2-2l5-8c-3 4-6 10-12 12h7c-6 5-8 13-16 14ZM353 168v-2a24 24 0 0 0-3-1c7-4 7-12 10-17l-5-2c6-5 8-8 7-13-1 8-6 12-12 15h8c-3 8-5 15-14 18h2l7 2v1l1-1ZM100 172ZM105 184l5-1-7-8-3-3 6 10a12 12 0 0 1-1 2ZM111 183h-1l1 1ZM105 185l9 12c1 1-3 1 0 2l6-3c-8 0-9-8-15-12v1ZM105 184ZM367 235a46 46 0 0 0-6 2l-7 5-2-4-13 8-1-1-13 8c-7 3-12 7-18 11-2 1-3 4-6 3l-12 11-1 1-1-2-17 14h-2l1 3 18-15v5c2-8 9-10 14-15l1 4c2-6 5-9 11-11l-1 4c2-7 8-9 13-12v2l13-10 1 5c2-7 8-8 14-11v5l1-2 13-7-1 4 14-6v5l2-2-1-5-13 6-1-3ZM245 39a19 19 0 0 0 1-12l-1-3v15ZM245 23v1ZM159 258h-1ZM170 271h7a21 21 0 0 0-3-2c-6-1-10-5-13-9a16 16 0 0 0-2-2l9 11 2 2ZM158 258ZM253 210h-5l-4 2 7-1-5 17c4-5 5-12 7-18ZM180 282l2 2 6-1v-1c-7 0-12-4-16-9a19 19 0 0 0 8 9ZM326 344a7 7 0 0 0-2 0l10 4-3 1v1l14 2a31 31 0 0 1-6-2l-13-6ZM346 352l-1-1ZM155 352c-3 4-7 5-11 7l1 1 9-5c2 3 2 3 3 2ZM166 350l-6 4-3 2 7-2 4 1 1-1-1 1-2-5Z"/></svg>