<svg data-name="Capa 1" xmlns="http://www.w3.org/2000/svg" viewBox="0 0 471 440.1"><path d="M207 268v-1h-1ZM220 114l-1 2 5 4-3-3a16 16 0 0 1-1-3ZM250 72h1a12 12 0 0 0-1 0ZM274 295ZM287 357Z"/><path d="m469 201-19 3c-9 1-19 2-26 10l-1-5-17 9v-5l-10 4-3 3 13-5-1 5 18-9-1 6 2-2c7-6 14-8 23-9l19-3c-5 6-11 12-18 16l-21 10 6 2c-8 5-14 12-23 11l8 4v2l-18 9 5 2c-7 8-15 11-26 12l10 2c-9 5-16 12-27 10l9 3c-10 2-16 11-27 6l4 5c-8 1-14 5-22 2l1 4h-5c-6 1-13 4-19-2l5 7-24-2 3 4h-16l-30 4h-1l-1-1 25-12c6-3 12-5 19-3l-6-2c6-4 13-3 20-3l-8-1c9-9 20-5 30-5l-8-2-8-1c11-8 23-7 35-5v-1l-16-3c11-8 24-6 38-6l-11-1h-12c11-8 23-14 37-12v-1h-15c11-9 23-10 35-11h-16l12-6 12-1-7-1c7-4 14-8 22-8h-4l-1-1 35-15-37 14 4-5c-5 6-12 9-20 12l5-7c-6 7-13 12-22 16l4-7h-1c-7 12-9 10-21 17l5-14-1-1-5 12a18 18 0 0 1-9 9l-11 6 3-11-4 9c-1 3-4 5-8 7l-9 4 5-11h-1c-3 10-10 16-21 19l5-11v-1c-4 10-10 17-20 20l3-5-1-1c-4 6-9 11-16 12h-1l-23 11-1-1 13-8c6-4 12-8 16-13a4 4 0 0 0 1-2c1 0 2 0 2 2v3c4-9 15-12 20-20v7c2-10 10-13 16-18l1 5 1-6 10-8 1 1-1 4c2-7 9-10 15-14v4l3-4v-1l12-8v5c3-8 9-10 15-13l1 5 15-9v6l2-2-2-5-14 8-1-5-15 9-1-1-8 6-4 4h-3l-20 12-5 6-1-2-16 14-1-1-19 17v-5l-3 4-5 3-36 22a19 19 0 0 1-2 1l10-11a75 75 0 0 1 11-10l12-6v-1l-14 6c3-9 11-13 21-16l-1-1-11 4c6-11 17-14 26-19l-17 6 8-11c3-3 8-5 13-6l12-4v-1l-21 6c3-10 10-16 20-17 5 0 10-2 14-3v-1l-25 6 7-10 6-6 14-3 17-3v-1l-31 5 4-5a20 20 0 0 1 16-10l11-3-18 3c3-9 12-10 19-12v-1l-10 2c4-11 16-12 24-17l-16 5c4-8 11-13 19-16l-9 3h-1l12-15 1-3-4 4v-8h-1c2 9-3 16-9 22l-3-9v12c-1 4-4 7-7 10l-6-14 4 12v5l-8 10-6-17a14 14 0 0 0 0 3l3 11 1 5-9 11-9-16 6 16 1 3-8 10-8-13h-1l5 11c1 2 2 5 1 6l-9 11-3-8-4-7a53 53 0 0 0 4 9c1 4 3 8-1 13l-7 11-2-9c1 11-1 16-8 23a43 43 0 0 0-1-5 46 46 0 0 0-2-5c1 13-3 22-10 28l-2-15-1 1v1c1 8 3 15-3 22l-8 11-8 10h-1l14-34 3 2c-5-7-2-14-1-21l5 4c-4-7 0-14 2-21l6 4c-4-6-4-9 0-20l7 3c-6-7-1-15-1-22l7 2c-2-6-1-12 2-19l7 4c-4-8 2-14 5-22l6 6c-4-9 2-14 7-21l6 8c-3-8 4-14 7-21l5 10c-3-8 5-12 8-19l7 7c-1-7 1-13 7-17l7 8 6-13-6 9-7-5c-4 3-9 7-9 14l-6-4-9 13-4-4-9 16-4-4c-3 6-9 10-8 18h-2l-2-4-6 11c-2 3-1 8-2 11l-5-2c-3 6-4 12-2 19l-6-2 8-23-8 3 11-26-7 3c7-10 10-21 9-33l-10 5c7-10 8-20 7-31l-5 1c7-8 5-16 2-24l-2 2-2 1c3-6 2-11 0-17 0-2-1-2-3-1l-4 3 3-16h-1l-3 1V38l-3 14 5-3 1 1-5 17 9-5c3 8 3 14-3 21l7-5c5 12 0 20-7 29 3-3 5-7 10-6 1 13-5 24-11 35 3-5 9-6 14-9a52 52 0 0 1-6 24c-2 4-4 8-10 9l-1 1 12-3-3 10c-3 6-3 13-10 15l11-2c-2 8-4 16-10 22a7 7 0 0 0-1 2l4-3-1 3a22 22 0 0 1-5 1l-3 1v1h7c-3 9-6 17-16 21l10-3c-3 12-11 22-19 32l7-4a53 53 0 0 1-10 24 24 24 0 0 0-3 7l-3 14-3 10-2-1c1-6 0-13 2-20s6-12 9-18l-10 13 2-15c0-6 2-11 6-15l10-14-14 17h-1l1-16c-1-6 3-9 8-12a12 12 0 0 0 2-1l10-8 3-4c-5 8-16 9-23 15l1-14c0-3 2-4 4-5a93 93 0 0 0 12-5l9-6v-1c-7 6-16 8-24 11l1-17c0-5 2-7 5-8l17-8a61 61 0 0 0 6-4l-27 12 1-16c1-6 4-10 9-12l13-7 4-2 4-3h-1l-27 13 2-15a12 12 0 0 1 5-10l9-6 10-9-23 17 1-13c0-7 3-11 8-15l9-6-1-1-15 10c1-8-1-17 9-22v-1l-7 6v-7c0-5-1-10 4-13l-4 2 2-13h-1l1-8 1-6h-1v2l-2-1v13l-4-5c4 9 4 10 2 16l-7-6c8 10 9 12 6 25l-9-10c3 5 7 8 8 13l1 14c-4-7-6-7-16-14a96 96 0 0 0 8 8c4 3 7 7 7 12l-2 19-16-14a93 93 0 0 0 8 9c5 5 8 9 6 17l-2 12-26-29a49 49 0 0 0 5 7l17 19 4 7-3 24-7-10c-7-7-15-13-21-22a9 9 0 0 0 2 3l13 16 11 15a6 6 0 0 1 1 3l-1 17-11-12-12-11-1 1 14 14c6 5 11 11 9 19a62 62 0 0 0 0 9l-22-19a12 12 0 0 0 1 2l13 13c3 3 7 6 7 9 1 7 0 15-1 22l-11-15c3 6 8 12 10 18s0 13 0 20l-8-15c2 7 5 14 6 22l1 22-4-15-3-12a36 36 0 0 0-4-17c-4-7-5-14-5-22l8 9a165 165 0 0 0-9-17c-3-6-7-11-7-18v4l5 13 4 9-2-1-4 4h-1c2-8-2-15-3-23l-1 2h-1l-2-21-5 4v-13l-1-12-9 4 8-2c-1 8 4 17-1 25l7-3c-1 8 5 16-1 23l5-4c2 9 5 17 1 25h1l4-5 2 12-1 11 1-1 13 41-2-3c-4-6-7-13-12-19a33 33 0 0 1-5-22v-9l-2 16c-8-10-12-22-7-36h-2l-3 16c-3-6-6-10-7-16s1-11 2-16l-1-1-3 16-6-12c-3-5-3-10-1-15l4-13-7 19-6-10c-3-4-3-7-2-10l3-7 2-5v-1l-7 15a45 45 0 0 0-4-6c-4-4-4-9-2-14l5-15-9 20a104 104 0 0 0-5-8c-3-4-4-7-2-12s3-11 3-16l-5 20c-8-7-11-15-6-24l1-4h-1l-4 14a77 77 0 0 0-5-7c-2-4-3-8-2-13v-7l-2 11c-6-8-10-16-8-26h-1v11l-3-5h-1l2 4-3-2-1-1c6 5 10 13 14 20l-7-3 9 7c3 3 4 7 6 11l-14-6c8 6 19 8 21 20l-12-4a89 89 0 0 0 11 5c4 2 8 6 9 11l-22-6 18 7c2 1 6 2 7 4 4 4 6 8 9 13l-23-4a63 63 0 0 0 14 4c6 1 12 3 14 9l5 8 2 4-20-6-1 1c4 1 7 3 11 3 11 2 15 11 19 20l-19-7-1 1c15 4 26 10 30 25l-16-8c21 12 21 15 24 23l-10-5-1 1c11 3 17 11 21 20l-4-2-4-2-4-2-1 1c15 5 21 19 29 31l-12-11-29-24 2 4 40 35a11 11 0 0 1 2 3l-40-35c4 6 8 11 14 14a87 87 0 0 1 12 11l-19-11a27 27 0 0 0-6-4c-7-2-10-7-13-12a13 13 0 0 0-3-4l5 9-1 1c-4-3-8-5-11-9l-7-13 4 12c-9-4-16-10-18-21l-1 1 3 10c-10-4-14-9-18-22l2 12c-5-4-12-7-15-12l-8-18 3 16c-7-6-17-11-19-22h-1l3 9a53 53 0 0 1-20-18l5 8c-7-4-14-8-19-14l3 5-33-18v1l31 17v1l-4-1c7 2 14 6 20 11h-7c9 0 16 5 23 10l-8-1a45 45 0 0 0-8-1c12 2 24 5 33 15l-17-2v1c15 0 27 6 37 15l-21-1v1c13 1 26 1 37 11-7-1-14-2-21 1 7-2 13 0 20 0 7 1 12 6 18 10h-19l17 1c7 0 11 4 15 7h-9c7 1 14 1 20 6l-6 1c14-1 23 8 34 15l8 6-24-7-24-4v-1l5-2-24-1v-1l5-5c-4 2-8 2-12 1l-13-3 3-4c-4 2-7 1-11 0l-11-5 4-4c-5 2-10 0-13-2l-12-8 8-1c-10 0-17-7-25-13h10c-10-3-19-6-24-15l4-1-16-12v-1l10-2c-9-1-16-8-23-14l7-1-21-12c-7-5-10-11-16-18l28 9c6 1 10 6 14 10l1 1v-6a8 8 0 0 1 2 1l12 7-13-10-1 2-2 3c-5-7-12-10-20-12l-23-8a23 23 0 0 0-3 0l17 20c5 6 13 10 22 12l-7 2 19 14-7 2 17 12-3 2c5 6 10 12 18 14l-5 1 19 13-2 2c8 3 13 12 23 11l-2 3c7 2 14 7 22 6l-1 3 20 4-3 2a35 35 0 0 0 17 2l5 1c2 4 5 4 9 5 12 1 24 4 36 8l7 4v1c-17-4-33-9-51-6l1 2a34 34 0 0 0-21-1l2 4c-7-2-14-5-21-2v3c-5-2-9-2-14 1h16l-1-3c5-2 9-1 14 0l12 3v-1c-2-1-6-1-6-5 7-1 14 1 21 3l-2-4c19 0 28 2 42 7h-20v1l3 1c-9 3-19 2-28 1l11 3c-8 2-15 4-22 2l3 1c-6 3-12 2-18 1l6 2c-7 2-13 3-19-1v1l4 3h-16l2 2-26 6 37-6 1 1-1 1 15-4-4 5c5-4 10-7 17-7l-7 7 1 1a30 30 0 0 1 22-11l-5 5-3 5 1 1c5-10 14-14 25-15-9 11-12 15-12 19 6-12 13-22 29-23l-6 8c7-8 10-10 17-8l-5 9c-4 8-7 17-15 23 4-1 7-4 9-7l9-17c1-3 1-6 5-8a2181 2181 0 0 1-1 74c0 13-2 25-3 38l2 4 9 2-2-8v-41c2-18 2-37 3-56a90 90 0 0 0-1-9 11 11 0 0 1 2 3l8 17a16 16 0 0 0 11 8l2-9c5 7 12 11 20 12l1-5 9 4a20 20 0 0 0 4 1l-1-1c-6-1-10-4-13-10l-1 10c-7-1-11-4-21-15l-1 12-4-2-6-9-10-22 9 3 6 6 1-1-5-6c12 0 19 8 25 17l1-1-10-13c5 3 12 2 16 6l11 12-9-13c9 0 16 5 21 12l1-1-7-8c7 0 12 4 17 8l-6-6c7 2 13 2 17 6l-2-2v-1l12 2h2l10 2 10 2-23-7 3-1h-16v-1l6-4c-7 4-13 4-20 1l2-1 2-1a25 25 0 0 1-16 0l4-2c-8 1-15 0-22-3a31 31 0 0 1 4 0 30 30 0 0 0 4-1l3-1c-10 1-19 2-28-1l2-1-18-2a91 91 0 0 1 40-5l-1 3 19-3v-1l-17 2v-2h-17v-2h18l8-1c2-3 5-3 7-2a12 12 0 0 0 4 1h12v-1l-2-2 21-1-1-4c8 3 15-2 22-3l-2-3c10 2 16-6 25-9l-2-2 20-11-5-2c9 0 15-6 20-12l-2-2 18-10-6-3 20-12-6-4c7-1 14-2 19-7l22-20v-1l-2 1Zm-203 10 1 11-4-3 3-8Zm-13 34v9l-5-1 5-8Zm-30 62-4-14-5-16-3-12-2-8h1l5 11 3 12 5 22 1 4Zm5 71-2 26c0 12 0 23 2 34a5 5 0 0 1-1 1c-7-1-7-1-7-9a1902 1902 0 0 0 6-90l-1-18a7 7 0 0 1 0-1l1-1 3 5a310 310 0 0 1-1 53Zm1-65a5 5 0 0 1 0-2l7-24a57 57 0 0 1 4-9l7-14a341 341 0 0 1-11 35l-7 14Zm4 3a3 3 0 0 1-1 0 21 21 0 0 1 3-4l39-27 1 1-8 6c-12 6-23 15-34 24Z"/><path d="m399 258 1-1h-1ZM215 81c-8-9-2-16 0-25l5 6V44l9 6c-2-7 1-13 3-20-3 5-4 10-5 16l-6-2h-1l-3 12-4-1-4 19-2-1 6 8ZM207 73ZM204 190l-9-2c-1 9 3 17 11 28l-4-2a11 11 0 0 0 3 2l9 4c-11-7-17-17-18-31l14 5c-12-9-14-22-15-35l12 7c-12-9-10-23-12-35 8-1 12 5 16 9a84 84 0 0 0-6-8 32 32 0 0 1-4-6c-4-9-3-18-2-27l11 6c-9-9-6-20-4-31l1-1h-2c-4 11-4 17 0 26l-7-1c-3 11-4 21 3 31h-5l-2 3a102 102 0 0 0 1 14l4 14-6-3c2 11 1 23 11 33ZM381 155a21 21 0 0 1-5 4 54 54 0 0 1-5 3h12c-5 6-9 12-16 14h8c-5 6-9 13-18 14h10a38 38 0 0 1-18 15l7 2c-7 6-12 13-22 12l7 3c-7 7-15 12-24 14h10c-6 8-15 10-23 15l9-1c-6 6-12 10-20 13l-7 2v1l10-2a39 39 0 0 1-24 13c8 3 17-5 24-12l1-2c7-2 12-8 17-13l-2-2c7-2 13-6 17-13h-3a46 46 0 0 0 17-13l-4-2c9-2 14-7 18-13l-5-2c8-3 12-8 16-15l-2-1 12-13-4-2c4-3 8-7 9-12l-6-1c7-7 7-7 8-12a45 45 0 0 1-4 6ZM85 96l-4-1c-1 9 0 11 7 19h-6c3 7 2 16 10 20l-4 1 10 1c-10-3-12-12-14-21l9 1-9-8c-3-3-3-7-3-12l9 4a73 73 0 0 1-4-7c-7-12-7-26-6-40 9 12 20 23 25 37-4-16-17-27-26-40v3l-1 15c-1 6 1 13 3 19l4 9ZM290 353l10 5 1-5c4 4 9 7 14 5v-4c6 3 11 3 12 0l15 1-2-3c9 3 18 2 26-1l13-4 4-1a13 13 0 0 0-4-2c-4-3-10-2-14-5l-1 1 16 5h-1c-14 5-27 11-43 4l4 4-1 1-14-2 1 3c-6 1-7 0-14-5l2 7c-6 1-12-3-14-8v8c-5-3-10-3-12-8l-1 8h2l1-4ZM198 353l-1-11c-5 7-12 13-22 15v-10c-3 6-8 10-16 10v-9c-3 7-5 6-12 9v-9c0 4-3 5-6 7s-5 3-9 2l3-7c-4 4-9 5-14 6v1l11-2-1 3h8c3 0 4-3 7-4v5l12-5v4c6 0 11-1 15-6l2 6c9-1 15-5 21-12l1 7c0 2 0 2 3 1l-2-1ZM200 354ZM106 353l3-4-13 3c-10 1-20 0-29 4 8-11 18-17 31-20l-4-2 12-4-2-2v2c-6 1-10 2-12 5l2 1c-13 3-23 10-30 21 8-3 15-3 23-3l17-2h1c-1 1-2 1-2 3l16-2v2l1-4-14 3ZM179 273ZM180 272h7v-1c-9-2-16-7-21-16l8 3c-8-5-18-10-23-20l8 2a7 7 0 0 0-1-1 5 5 0 0 0-1-1 48 48 0 0 1-20-14 9 9 0 0 0 1 3l12 11h-1c7 11 9 12 15 16 4 8 9 13 15 16v3l1-1ZM145 222c-8-2-15-8-21-15l6-4c-10-1-14-8-19-14l6-3c-6-3-10-8-14-13a19 19 0 0 0-2-2c2 7 7 11 13 15l-4 2c4 7 8 14 16 16l-3 2a46 46 0 0 0 15 15h-3l2 2v1ZM237 29l5-10c-3 1-6 6-7 12h-1l4 8c-1-3-2-7-1-10ZM264 1a37 37 0 0 1-1 4l-3 6c-1 5-1 10-5 14l5-4a17 17 0 0 0 0 3c2 5 2 9 0 14l1 1c2-5 2-11 0-16l-1-4 3-12 2-7c-9 4-18 8-21 19a3 3 0 0 0-2 0l3 3c1-11 10-16 19-21ZM242 19ZM138 238l-1 1 3 1ZM124 230l-1-1v3ZM146 249v5l2-5c3 3 6 5 8 9l5 9 1-4 7 7 9 8a48 48 0 0 0-3-4l-13-14-1 2-13-16-2 3-5-7a16 16 0 0 0-1-2l6 9ZM379 131l10-3v-1l-5 1c7-9 10-19 7-30 1 13-3 24-12 33ZM389 129l-3 9a11 11 0 0 0 3-9ZM390 129l-1-1v1h1ZM101 170v1-1ZM110 168c-10-1-12-10-18-16h9c-7-2-9-8-13-13l-1 1 7 11-3 1 11 16c-2 1-2 1-1 2l2-1a63 63 0 0 1 7-1ZM389 92c-10 9-22 17-27 31 6-13 18-21 27-31ZM340 327l-10-2v-5l-14-1-1-2-1 4h15l1 1-6 9a5 5 0 0 0 1-1c5-4 10-4 15-2l1 1-1-2ZM65 198l14 9 1-4 11 7-12-9-1 4-13-8-2 5 2 2ZM351 334c-2-2-5-2-8-3l-2-1-2 2 12 3v1l-4 1 1 1 16 1c-5-1-10 0-13-5ZM364 339h1ZM341 330v-1 1ZM296 318v-1l-7 2h8a53 53 0 0 1 17-2c-6-3-12 0-18 1ZM315 317h-1 1ZM122 86a30 30 0 0 1 7 21l6-9c3 8 9 14 7 22l5-10c3 8 8 15 6 24l5-10c5 8 10 16 7 25l5-7c3 9 8 17 4 26l8-6 2 20c2-7 0-14-2-21l-6 4c2-10-3-18-6-26l-3 4c0-9-6-14-8-22l-3 5-9-18-3 5-9-16-5 5c0-6-3-12-8-16h-1l-5 6-6-11 5 15ZM117 320ZM116 320l1 5h-12v2a17 17 0 0 1 18 4c-5-6-5-6-6-11h-1Z"/><path d="m93 210-2 1 2 2 2-4 11 7 3 6 1-4 13 11 8 7a448 448 0 0 1 5 4l1-1a35 35 0 0 1-3-2l-10-9-3-1h1l-13-10v1l-3-2-11-10-2 4ZM385 144l-4-1 3-2v-1l-9 5 10-1ZM99 99l5 6c-2-6-2-6-5-6Z"/></svg>